<mxfile host="app.diagrams.net" modified="2024-04-26T15:02:59.117Z" agent="Mozilla/5.0 (X11; Linux x86_64; rv:109.0) Gecko/20100101 Firefox/115.0" version="24.2.8" etag="Jhk87jP-MOcR87cnm--w" type="github">
  <diagram name="Page-1" id="jB4_dpdlzR5g0l4ANaCg">
    <mxGraphModel>
      <root>
        <mxCell id="0" />
        <mxCell id="1" parent="0" />
      </root>
    </mxGraphModel>
  </diagram>
</mxfile>
